<svg width="1004px" height="486px" viewBox="0 0 1004 486" version="1.1" xmlns:xlink="http://www.w3.org/1999/xlink" xmlns="http://www.w3.org/2000/svg">
  <g id="Map" transform="translate(1 -780.9999)">
    <g id="np_california_725261_000000-copy" opacity="0.29827008">
      <path d="M1007.08 933.448L870.873 807.994L442.182 413.142L442.182 22.8104L27.1096 0C23.9043 7.54402 3.36709 29.2855 6.57176 41.404C10.43 55.898 29.8387 51.2648 35.4776 60.5906C42.0661 71.58 30.7291 116.251 27.3457 129.14C20.8759 153.555 6.09676 173.335 1.82235 197.75C-5.35982 238.737 9.18245 235.47 36.7242 261.073C83.141 304.258 45.9244 349.048 57.6176 399.777C67.1146 441.122 108.605 462.446 123.8 503.789C135.553 535.63 151.697 543.767 176.746 567.053C176.153 552.916 163.51 511.215 187.253 514.898C210.817 518.522 201.736 553.331 206.247 567.885C210.045 580.003 236.933 604.239 214.616 615.407C207.196 619.09 186.066 604.417 177.577 600.497C183.572 619.209 179.774 638.633 189.271 656.513C200.608 677.838 212.835 669.641 227.853 681.225C243.344 693.164 241.683 706.886 234.797 724.945C227.615 743.775 220.196 740.865 231.592 763.557C239.843 779.951 253.85 800.742 265.9 813.216C272.904 820.463 280.502 822.127 287.506 831.393C293.323 839.115 291.067 849.214 298.012 856.164C309.883 868.104 330.006 868.282 339.384 883.904C349.831 901.309 337.96 914.437 368.706 912.833C370.309 947.643 376.897 979.185 376.541 1013.99C393.695 1020.82 421.414 1012.69 439.399 1009.06C457.266 1033.18 480.355 1016.43 500.774 1029.56C509.678 1035.26 507.837 1049.52 513.239 1054.51C524.339 1064.72 532.529 1058.31 546.301 1061.87C556.51 1064.49 564.404 1071.97 574.138 1074.7C583.339 1077.26 598.475 1071.26 605.301 1079.4C613.492 1089.14 599.78 1106.96 612.127 1114.8C622.395 1121.33 637.115 1105.77 647.088 1108.03C658.721 1110.7 692.079 1141.17 700.271 1151.21C709.59 1162.68 718.969 1184.06 724.25 1198.79C732.501 1221.84 731.373 1233.13 748.408 1250C759.27 1260.75 748.942 1261.52 766.63 1264.67C778.204 1266.75 793.518 1258.37 805.212 1257.07C829.549 1254.39 854.122 1259.03 878.102 1254.45C900.421 1250.18 921.729 1243.17 944.64 1239.9C964.465 1237.05 999.367 1239.25 1016.94 1229.8C1035.99 1219.64 1037.71 1196.65 1010.17 1200.93C1007.97 1186.26 1017.77 1166 1006.85 1155.85C1022.04 1135.06 1027.56 1120.38 1029.93 1094.96C1031 1083.79 1031.48 1071.44 1037 1062.05C1042.4 1052.78 1057.59 1047.26 1060.56 1039.3C1065.13 1026.94 1057.83 1021.42 1052.25 1014.53C1048.69 1010.07 1038.54 1012.21 1035.63 1008.29C1030.23 1001.1 1035.57 993.678 1032.6 986.431C1023.94 965.462 1013.61 957.205 1007.08 933.444C1007.26 937.424 1007.44 941.463 1007.2 945.384" id="Shape" fill="none" fill-rule="evenodd" stroke="#FFFFFF" stroke-width="2" stroke-linecap="round" stroke-linejoin="round" />
    </g>
    <path d="M277.54 0C268.845 25.7736 275.725 26.2471 292.025 43.0924C296.855 48.0839 292.58 64.6883 287.496 69.6767C276.564 80.4037 253.336 65.0113 255.965 79.1521C258.681 93.7567 273.092 127.579 274.671 128.976C288.541 141.247 275.593 153.273 267.954 170.342C262.518 182.487 222.721 210.449 211.385 206.405C137.152 179.919 212.46 156.739 129.072 148.514C122.689 147.885 117.239 151.35 104.652 166.139C95.6598 179.414 85.1693 222.622 87.2881 227.264C94.3092 242.648 114.132 245.226 105.673 265.448C103.077 271.653 92.5136 289.917 69.3542 287.819C56.294 287.402 0.953681 265.554 0 270.791" transform="matrix(0.70710677 -0.70710677 0.70710677 0.70710677 534.0781 1048.022)" id="Path-4" fill="none" fill-rule="evenodd" stroke="#FFFFFF" stroke-width="2" />
    <path d="M6 3C6 1.34315 4.65685 0 3 0C1.34315 0 0 1.34315 0 3C0 4.65685 1.34315 6 3 6C4.65685 6 6 4.65685 6 3Z" transform="translate(721 1235)" id="Oval-Copy-6" fill="#4AF6CD" fill-rule="evenodd" stroke="none" />
    <path d="M13 6.5C13 2.91015 10.0899 0 6.5 0C2.91015 0 0 2.91015 0 6.5C0 10.0899 2.91015 13 6.5 13C10.0899 13 13 10.0899 13 6.5Z" transform="translate(722 848)" id="Oval-Copy" fill="#4AF6CD" fill-rule="evenodd" stroke="none" />
    <g id="South-Shore--Malibu,-CA" transform="translate(531 1225.6998)">
      <g fill="#FFFFFF" stroke="none" id="South-">
        <path d="M40.44 7.16556Q39.792 6.47756 38.64 6.47756Q37.136 6.47756 36.144 7.83756L36.144 3.13356L34.672 3.29356L34.672 15.1016L36.144 15.1016L36.144 9.10156Q36.592 8.39756 37.104 8.01356Q37.616 7.62956 38.272 7.62956Q38.928 7.62956 39.272 7.99756Q39.616 8.36556 39.616 9.26156L39.616 15.1016L41.088 15.1016L41.088 9.05356Q41.088 7.85356 40.44 7.16556ZM4.32 3.88556Q5.424 3.88556 6.208 4.19756Q6.992 4.50956 7.728 5.16556L6.896 6.09356Q6.272 5.59756 5.672 5.36556Q5.072 5.13356 4.384 5.13356Q3.52 5.13356 2.96 5.53356Q2.4 5.93356 2.4 6.70156Q2.4 7.18156 2.592 7.50956Q2.784 7.83756 3.304 8.10956Q3.824 8.38156 4.816 8.68556Q5.856 9.00556 6.544 9.37356Q7.232 9.74156 7.656 10.3896Q8.08 11.0376 8.08 12.0296Q8.08 12.9896 7.608 13.7256Q7.136 14.4616 6.248 14.8776Q5.36 15.2936 4.144 15.2936Q1.856 15.2936 0.4 13.8696L1.232 12.9416Q1.904 13.4856 2.592 13.7656Q3.28 14.0456 4.128 14.0456Q5.152 14.0456 5.824 13.5416Q6.496 13.0376 6.496 12.0776Q6.496 11.5336 6.288 11.1736Q6.08 10.8136 5.576 10.5256Q5.072 10.2376 4.112 9.94956Q2.416 9.43756 1.632 8.71756Q0.848 7.99756 0.848 6.76556Q0.848 5.93356 1.288 5.27756Q1.728 4.62156 2.52 4.25356Q3.312 3.88556 4.32 3.88556ZM33.152 14.7176Q32.32 15.2936 31.264 15.2936Q30.192 15.2936 29.592 14.6776Q28.992 14.0616 28.992 12.8936L28.992 7.80556L27.52 7.80556L27.52 6.66956L28.992 6.66956L28.992 4.76556L30.464 4.58956L30.464 6.66956L32.464 6.66956L32.304 7.80556L30.464 7.80556L30.464 12.8296Q30.464 13.4856 30.696 13.7816Q30.928 14.0776 31.472 14.0776Q31.968 14.0776 32.592 13.7416L33.152 14.7176ZM13.408 6.47756Q15.184 6.47756 16.168 7.66156Q17.152 8.84556 17.152 10.8776Q17.152 12.1896 16.704 13.1896Q16.256 14.1896 15.408 14.7416Q14.56 15.2936 13.392 15.2936Q11.616 15.2936 10.624 14.1096Q9.632 12.9256 9.632 10.8936Q9.632 9.58156 10.08 8.58156Q10.528 7.58156 11.376 7.02956Q12.224 6.47756 13.408 6.47756ZM24.592 15.1016L25.856 15.1016L25.856 6.66956L24.384 6.66956L24.384 12.6856Q23.504 14.1416 22.272 14.1416Q21.584 14.1416 21.28 13.7816Q20.976 13.4216 20.976 12.5576L20.976 6.66956L19.504 6.66956L19.504 12.7176Q19.504 13.9496 20.128 14.6216Q20.752 15.2936 21.856 15.2936Q22.752 15.2936 23.376 14.9336Q24 14.5736 24.48 13.7896L24.592 15.1016ZM13.408 7.66156Q12.7174 7.66156 12.2444 7.98238Q11.216 8.67983 11.216 10.8936Q11.216 14.1096 13.392 14.1096Q15.568 14.1096 15.568 10.8776Q15.568 7.66156 13.408 7.66156Z" />
      </g>
      <g fill="#FFFFFF" stroke="none" id="S">
        <path d="M51.088 3.88556Q52.192 3.88556 52.976 4.19756Q53.76 4.50956 54.496 5.16556L53.664 6.09356Q53.04 5.59756 52.44 5.36556Q51.84 5.13356 51.152 5.13356Q50.288 5.13356 49.728 5.53356Q49.168 5.93356 49.168 6.70156Q49.168 7.18156 49.36 7.50956Q49.552 7.83756 50.072 8.10956Q50.592 8.38156 51.584 8.68556Q52.624 9.00556 53.312 9.37356Q54 9.74156 54.424 10.3896Q54.848 11.0376 54.848 12.0296Q54.848 12.9896 54.376 13.7256Q53.904 14.4616 53.016 14.8776Q52.128 15.2936 50.912 15.2936Q48.624 15.2936 47.168 13.8696L48 12.9416Q48.672 13.4856 49.36 13.7656Q50.048 14.0456 50.896 14.0456Q51.92 14.0456 52.592 13.5416Q53.264 13.0376 53.264 12.0776Q53.264 11.5336 53.056 11.1736Q52.848 10.8136 52.344 10.5256Q51.84 10.2376 50.88 9.94956Q49.184 9.43756 48.4 8.71756Q47.616 7.99756 47.616 6.76556Q47.616 5.93356 48.056 5.27756Q48.496 4.62156 49.288 4.25356Q50.08 3.88556 51.088 3.88556Z" />
      </g>
      <g fill="#FFFFFF" stroke="none" id="h">
        <path d="M60.976 6.47756Q62.128 6.47756 62.776 7.16556Q63.424 7.85356 63.424 9.05356L63.424 15.1016L61.952 15.1016L61.952 9.26156Q61.952 8.36556 61.608 7.99756Q61.264 7.62956 60.608 7.62956Q59.952 7.62956 59.44 8.01356Q58.928 8.39756 58.48 9.10156L58.48 15.1016L57.008 15.1016L57.008 3.29356L58.48 3.13356L58.48 7.83756Q59.472 6.47756 60.976 6.47756Z" />
      </g>
      <g fill="#FFFFFF" stroke="none" id="o">
        <path d="M69.552 6.47756Q71.328 6.47756 72.312 7.66156Q73.296 8.84556 73.296 10.8776Q73.296 12.1896 72.848 13.1896Q72.4 14.1896 71.552 14.7416Q70.704 15.2936 69.536 15.2936Q67.76 15.2936 66.768 14.1096Q65.776 12.9256 65.776 10.8936Q65.776 9.58156 66.224 8.58156Q66.672 7.58156 67.52 7.02956Q68.368 6.47756 69.552 6.47756ZM69.552 7.66156Q67.36 7.66156 67.36 10.8936Q67.36 14.1096 69.536 14.1096Q71.712 14.1096 71.712 10.8776Q71.712 7.66156 69.552 7.66156Z" />
      </g>
      <g fill="#FFFFFF" stroke="none" id="r">
        <path d="M79.392 6.47756Q79.84 6.47756 80.224 6.57356L79.952 8.01356Q79.568 7.91756 79.216 7.91756Q78.432 7.91756 77.952 8.49356Q77.472 9.06956 77.2 10.2856L77.2 15.1016L75.728 15.1016L75.728 6.66956L76.992 6.66956L77.136 8.38156Q77.472 7.43756 78.048 6.95756Q78.624 6.47756 79.392 6.47756Z" />
      </g>
      <g fill="#FFFFFF" stroke="none" id="e">
        <path d="M88.272 10.6376Q88.272 11.0056 88.24 11.3896L82.864 11.3896Q82.96 12.7816 83.568 13.4376Q84.176 14.0936 85.136 14.0936Q85.744 14.0936 86.256 13.9176Q86.768 13.7416 87.328 13.3576L87.968 14.2376Q86.624 15.2936 85.024 15.2936Q83.264 15.2936 82.28 14.1416Q81.296 12.9896 81.296 10.9736Q81.296 9.66156 81.72 8.64556Q82.144 7.62956 82.936 7.05356Q83.728 6.47756 84.8 6.47756Q86.48 6.47756 87.376 7.58156Q88.272 8.68556 88.272 10.6376ZM86.816 10.2056Q86.816 8.95756 86.32 8.30156Q85.824 7.64556 84.832 7.64556Q83.024 7.64556 82.864 10.3016L86.816 10.3016L86.816 10.2056Z" />
      </g>
      <g fill="#FFFFFF" stroke="none" id="">
        <path d="M96.816 2.28556L96.816 16.6696L96.464 16.6696L96.464 2.28556L96.816 2.28556Z" />
      </g>
      <g fill="#FFFFFF" stroke="none" id="M">
        <path d="M115.648 15.1016L114.176 15.1016L113.792 10.1256Q113.552 7.19756 113.52 5.62956L111.136 13.8536L109.712 13.8536L107.2 5.61356Q107.2 7.61356 106.992 10.2376L106.624 15.1016L105.184 15.1016L106.096 4.07756L108.144 4.07756L110.464 12.0936L112.672 4.07756L114.736 4.07756L115.648 15.1016Z" />
      </g>
      <g fill="#FFFFFF" stroke="none" id="a">
        <path d="M123.84 13.1336Q123.84 13.6456 124.016 13.8936Q124.192 14.1416 124.544 14.2696L124.208 15.2936Q123.552 15.2136 123.152 14.9256Q122.752 14.6376 122.56 14.0296Q121.712 15.2936 120.048 15.2936Q118.8 15.2936 118.08 14.5896Q117.36 13.8856 117.36 12.7496Q117.36 11.4056 118.328 10.6856Q119.296 9.96556 121.072 9.96556L122.368 9.96556L122.368 9.34156Q122.368 8.44556 121.936 8.06156Q121.504 7.67756 120.608 7.67756Q119.68 7.67756 118.336 8.12556L117.968 7.05356Q119.536 6.47756 120.88 6.47756Q122.368 6.47756 123.104 7.20556Q123.84 7.93356 123.84 9.27756L123.84 13.1336ZM120.384 14.1896Q121.648 14.1896 122.368 12.8776L122.368 10.9416L121.264 10.9416Q118.928 10.9416 118.928 12.6696Q118.928 13.4216 119.296 13.8056Q119.664 14.1896 120.384 14.1896Z" />
      </g>
      <g fill="#FFFFFF" stroke="none" id="l">
        <path d="M128.544 15.2936Q127.728 15.2936 127.256 14.8056Q126.784 14.3176 126.784 13.4376L126.784 3.27756L128.256 3.10156L128.256 13.4056Q128.256 13.7576 128.376 13.9176Q128.496 14.0776 128.784 14.0776Q129.088 14.0776 129.328 13.9816L129.712 15.0056Q129.184 15.2936 128.544 15.2936Z" />
      </g>
      <g fill="#FFFFFF" stroke="none" id="i">
        <path d="M133.024 6.66956L133.024 15.1016L131.552 15.1016L131.552 6.66956L133.024 6.66956ZM132.272 2.62156Q132.736 2.62156 133.024 2.90956Q133.312 3.19756 133.312 3.62956Q133.312 4.06156 133.024 4.34156Q132.736 4.62156 132.272 4.62156Q131.824 4.62156 131.536 4.34156Q131.248 4.06156 131.248 3.62956Q131.248 3.19756 131.536 2.90956Q131.824 2.62156 132.272 2.62156Z" />
      </g>
      <g fill="#FFFFFF" stroke="none" id="b">
        <path d="M139.92 6.47756Q141.36 6.47756 142.208 7.63756Q143.056 8.79756 143.056 10.8776Q143.056 12.1896 142.656 13.1896Q142.256 14.1896 141.504 14.7416Q140.752 15.2936 139.744 15.2936Q138.416 15.2936 137.504 14.1736L137.36 15.1016L136.064 15.1016L136.064 3.27756L137.536 3.10156L137.536 7.72556Q138.448 6.47756 139.92 6.47756ZM139.392 14.1256Q140.368 14.1256 140.92 13.3336Q141.472 12.5416 141.472 10.8776Q141.472 9.16556 140.96 8.40556Q140.448 7.64556 139.504 7.64556Q138.384 7.64556 137.536 8.95756L137.536 12.9896Q137.872 13.5176 138.36 13.8216Q138.848 14.1256 139.392 14.1256Z" />
      </g>
      <g fill="#FFFFFF" stroke="none" id="u">
        <path d="M151.84 15.1016L150.576 15.1016L150.464 13.7896Q149.984 14.5736 149.36 14.9336Q148.736 15.2936 147.84 15.2936Q146.736 15.2936 146.112 14.6216Q145.488 13.9496 145.488 12.7176L145.488 6.66956L146.96 6.66956L146.96 12.5576Q146.96 13.4216 147.264 13.7816Q147.568 14.1416 148.256 14.1416Q149.488 14.1416 150.368 12.6856L150.368 6.66956L151.84 6.66956L151.84 15.1016Z" />
      </g>
      <g fill="#FFFFFF" stroke="none" id=",">
        <path d="M155.264 13.0696Q155.744 13.0696 156.064 13.3896Q156.384 13.7096 156.384 14.1736Q156.384 14.6696 156.096 15.3096L155.024 17.7576L153.968 17.7576L154.608 15.1016Q154.4 14.9416 154.28 14.7016Q154.16 14.4616 154.16 14.1736Q154.16 13.7096 154.48 13.3896Q154.8 13.0696 155.264 13.0696Z" />
      </g>
      <g fill="#FFFFFF" stroke="none" id="C">
        <path d="M166.896 3.88556Q167.888 3.88556 168.568 4.14156Q169.248 4.39756 169.952 4.97356L169.12 5.94956Q168.112 5.13356 166.992 5.13356Q165.616 5.13356 164.776 6.18956Q163.936 7.24556 163.936 9.58156Q163.936 11.8536 164.768 12.9336Q165.6 14.0136 166.976 14.0136Q167.68 14.0136 168.208 13.7736Q168.736 13.5336 169.328 13.1016L170.08 14.0616Q169.568 14.5896 168.768 14.9416Q167.968 15.2936 166.928 15.2936Q165.584 15.2936 164.536 14.6296Q163.488 13.9656 162.904 12.6776Q162.32 11.3896 162.32 9.58156Q162.32 7.77356 162.928 6.48556Q163.536 5.19756 164.576 4.54156Q165.616 3.88556 166.896 3.88556Z" />
      </g>
      <g fill="#FFFFFF" stroke="none" id="A">
        <path d="M177.872 15.1016L177.04 12.3336L172.864 12.3336L172.032 15.1016L170.496 15.1016L174.032 4.07756L175.952 4.07756L179.472 15.1016L177.872 15.1016ZM173.232 11.1016L176.672 11.1016L174.96 5.34156L173.232 11.1016Z" />
      </g>
    </g>
    <g fill="#FFFFFF" stroke="none" id="Current-Location" transform="translate(591 842)">
      <path d="M101.168 2.90956Q100.88 2.62156 100.416 2.62156Q99.968 2.62156 99.68 2.90956Q99.392 3.19756 99.392 3.62956Q99.392 4.06156 99.68 4.34156Q99.968 4.62156 100.416 4.62156Q100.88 4.62156 101.168 4.34156Q101.456 4.06156 101.456 3.62956Q101.456 3.19756 101.168 2.90956ZM5.456 3.88556Q6.448 3.88556 7.128 4.14156Q7.808 4.39756 8.512 4.97356L7.68 5.94956Q6.672 5.13356 5.552 5.13356Q4.176 5.13356 3.336 6.18956Q2.496 7.24556 2.496 9.58156Q2.496 11.8536 3.328 12.9336Q4.16 14.0136 5.536 14.0136Q6.24 14.0136 6.768 13.7736Q7.296 13.5336 7.888 13.1016L8.64 14.0616Q8.128 14.5896 7.328 14.9416Q6.528 15.2936 5.488 15.2936Q4.144 15.2936 3.096 14.6296Q2.048 13.9656 1.464 12.6776Q0.88 11.3896 0.88 9.58156Q0.88 7.77356 1.488 6.48556Q2.096 5.19756 3.136 4.54156Q4.176 3.88556 5.456 3.88556ZM61.856 4.07756L61.856 13.7736L66.384 13.7736L66.208 15.1016L60.336 15.1016L60.336 4.07756L61.856 4.07756ZM52.608 15.2936Q53.664 15.2936 54.496 14.7176L53.936 13.7416Q53.312 14.0776 52.816 14.0776Q52.272 14.0776 52.04 13.7816Q51.808 13.4856 51.808 12.8296L51.808 7.80556L53.648 7.80556L53.808 6.66956L51.808 6.66956L51.808 4.58956L50.336 4.76556L50.336 6.66956L48.864 6.66956L48.864 7.80556L50.336 7.80556L50.336 12.8936Q50.336 14.0616 50.936 14.6776Q51.536 15.2936 52.608 15.2936ZM98.176 14.7176Q97.344 15.2936 96.288 15.2936Q95.216 15.2936 94.616 14.6776Q94.016 14.0616 94.016 12.8936L94.016 7.80556L92.544 7.80556L92.544 6.66956L94.016 6.66956L94.016 4.76556L95.488 4.58956L95.488 6.66956L97.488 6.66956L97.328 7.80556L95.488 7.80556L95.488 12.8296Q95.488 13.4856 95.72 13.7816Q95.952 14.0776 96.496 14.0776Q96.992 14.0776 97.616 13.7416L98.176 14.7176ZM24.288 6.57356Q23.904 6.47756 23.456 6.47756Q22.688 6.47756 22.112 6.95756Q21.536 7.43756 21.2 8.38156L21.056 6.66956L19.792 6.66956L19.792 15.1016L21.264 15.1016L21.264 10.2856Q21.536 9.06956 22.016 8.49356Q22.496 7.91756 23.28 7.91756Q23.632 7.91756 24.016 8.01356L24.288 6.57356ZM29.632 6.47756Q30.08 6.47756 30.464 6.57356L30.192 8.01356Q29.808 7.91756 29.456 7.91756Q28.672 7.91756 28.192 8.49356Q27.712 9.06956 27.44 10.2856L27.44 15.1016L25.968 15.1016L25.968 6.66956L27.232 6.66956L27.376 8.38156Q27.712 7.43756 28.288 6.95756Q28.864 6.47756 29.632 6.47756ZM38.48 11.3896Q38.512 11.0056 38.512 10.6376Q38.512 8.68556 37.616 7.58156Q36.72 6.47756 35.04 6.47756Q33.968 6.47756 33.176 7.05356Q32.384 7.62956 31.96 8.64556Q31.536 9.66156 31.536 10.9736Q31.536 12.9896 32.52 14.1416Q33.504 15.2936 35.264 15.2936Q36.864 15.2936 38.208 14.2376L37.568 13.3576Q37.008 13.7416 36.496 13.9176Q35.984 14.0936 35.376 14.0936Q34.416 14.0936 33.808 13.4376Q33.2 12.7816 33.104 11.3896L38.48 11.3896ZM44.832 6.47756Q45.984 6.47756 46.632 7.16556Q47.28 7.85356 47.28 9.05356L47.28 15.1016L45.808 15.1016L45.808 9.26156Q45.808 8.36556 45.472 7.99756Q45.136 7.62956 44.48 7.62956Q43.808 7.62956 43.296 8.01356Q42.784 8.39756 42.336 9.11756L42.336 15.1016L40.864 15.1016L40.864 6.66956L42.128 6.66956L42.256 7.91756Q42.704 7.24556 43.368 6.86156Q44.032 6.47756 44.832 6.47756ZM74.152 7.66156Q73.168 6.47756 71.392 6.47756Q70.208 6.47756 69.36 7.02956Q68.512 7.58156 68.064 8.58156Q67.616 9.58156 67.616 10.8936Q67.616 12.9256 68.608 14.1096Q69.6 15.2936 71.376 15.2936Q72.544 15.2936 73.392 14.7416Q74.24 14.1896 74.688 13.1896Q75.136 12.1896 75.136 10.8776Q75.136 8.84556 74.152 7.66156ZM80.64 6.47756Q81.392 6.47756 82.016 6.69356Q82.64 6.90956 83.216 7.38956L82.512 8.31756Q82.064 7.99756 81.64 7.84556Q81.216 7.69356 80.704 7.69356Q79.68 7.69356 79.112 8.50956Q78.544 9.32556 78.544 10.9256Q78.544 12.5256 79.104 13.2856Q79.664 14.0456 80.704 14.0456Q81.2 14.0456 81.616 13.8936Q82.032 13.7416 82.544 13.4056L83.216 14.3656Q82.064 15.2936 80.64 15.2936Q78.928 15.2936 77.944 14.1416Q76.96 12.9896 76.96 10.9576Q76.96 9.61356 77.408 8.60556Q77.856 7.59756 78.68 7.03756Q79.504 6.47756 80.64 6.47756ZM91.072 13.8936Q90.896 13.6456 90.896 13.1336L90.896 9.27756Q90.896 7.93356 90.16 7.20556Q89.424 6.47756 87.936 6.47756Q86.592 6.47756 85.024 7.05356L85.392 8.12556Q86.736 7.67756 87.664 7.67756Q88.56 7.67756 88.992 8.06156Q89.424 8.44556 89.424 9.34156L89.424 9.96556L88.128 9.96556Q86.352 9.96556 85.384 10.6856Q84.416 11.4056 84.416 12.7496Q84.416 13.8856 85.136 14.5896Q85.856 15.2936 87.104 15.2936Q88.768 15.2936 89.616 14.0296Q89.808 14.6376 90.208 14.9256Q90.608 15.2136 91.264 15.2936L91.6 14.2696Q91.248 14.1416 91.072 13.8936ZM107.376 6.47756Q109.152 6.47756 110.136 7.66156Q111.12 8.84556 111.12 10.8776Q111.12 12.1896 110.672 13.1896Q110.224 14.1896 109.376 14.7416Q108.528 15.2936 107.36 15.2936Q105.584 15.2936 104.592 14.1096Q103.6 12.9256 103.6 10.8936Q103.6 9.58156 104.048 8.58156Q104.496 7.58156 105.344 7.02956Q106.192 6.47756 107.376 6.47756ZM119.32 7.16556Q118.672 6.47756 117.52 6.47756Q116.72 6.47756 116.056 6.86156Q115.392 7.24556 114.944 7.91756L114.816 6.66956L113.552 6.66956L113.552 15.1016L115.024 15.1016L115.024 9.11756Q115.472 8.39756 115.984 8.01356Q116.496 7.62956 117.168 7.62956Q117.824 7.62956 118.16 7.99756Q118.496 8.36556 118.496 9.26156L118.496 15.1016L119.968 15.1016L119.968 9.05356Q119.968 7.85356 119.32 7.16556ZM16.752 15.1016L15.488 15.1016L15.376 13.7896Q14.896 14.5736 14.272 14.9336Q13.648 15.2936 12.752 15.2936Q11.648 15.2936 11.024 14.6216Q10.4 13.9496 10.4 12.7176L10.4 6.66956L11.872 6.66956L11.872 12.5576Q11.872 13.4216 12.176 13.7816Q12.48 14.1416 13.168 14.1416Q14.4 14.1416 15.28 12.6856L15.28 6.66956L16.752 6.66956L16.752 15.1016ZM101.168 15.1016L101.168 6.66956L99.696 6.66956L99.696 15.1016L101.168 15.1016ZM36.56 8.30156Q37.056 8.95756 37.056 10.2056L37.056 10.3016L33.104 10.3016Q33.264 7.64556 35.072 7.64556Q36.064 7.64556 36.56 8.30156ZM69.2 10.8936Q69.2 7.66156 71.392 7.66156Q73.552 7.66156 73.552 10.8776Q73.552 14.1096 71.376 14.1096Q69.2 14.1096 69.2 10.8936ZM107.376 7.66156Q105.184 7.66156 105.184 10.8936Q105.184 14.1096 107.36 14.1096Q109.536 14.1096 109.536 10.8776Q109.536 7.66156 107.376 7.66156ZM89.424 12.8776Q88.704 14.1896 87.44 14.1896Q86.72 14.1896 86.352 13.8056Q85.984 13.4216 85.984 12.6696Q85.984 10.9416 88.32 10.9416L89.424 10.9416L89.424 12.8776Z" />
    </g>
  </g>
</svg>